<?xml version="1.0" encoding="UTF-8" standalone="no"?>
<!-- Created using Krita: https://krita.org -->

<svg
   width="1425.6pt"
   height="777.6pt"
   viewBox="0 0 1425.6 777.6"
   version="1.1"
   id="svg834"
   sodipodi:docname="bookmark.svg"
   inkscape:version="1.1.1 (3bf5ae0d25, 2021-09-20)"
   xmlns:inkscape="http://www.inkscape.org/namespaces/inkscape"
   xmlns:sodipodi="http://sodipodi.sourceforge.net/DTD/sodipodi-0.dtd"
   xmlns="http://www.w3.org/2000/svg"
   xmlns:svg="http://www.w3.org/2000/svg">
  <sodipodi:namedview
     id="namedview836"
     pagecolor="#ffffff"
     bordercolor="#666666"
     borderopacity="1.0"
     inkscape:pageshadow="2"
     inkscape:pageopacity="0.0"
     inkscape:pagecheckerboard="0"
     inkscape:document-units="pt"
     showgrid="false"
     inkscape:zoom="1"
     inkscape:cx="1034.6785"
     inkscape:cy="423.63305"
     inkscape:window-width="1920"
     inkscape:window-height="1017"
     inkscape:window-x="-8"
     inkscape:window-y="-8"
     inkscape:window-maximized="1"
     inkscape:current-layer="svg834" />
  <defs
     id="defs831" />
  <path
     id="shape0"
     transform="translate(410.399988040924, 239.039993034363)"
     fill="none"
     stroke="#000000"
     stroke-width="3.6"
     stroke-linecap="square"
     stroke-linejoin="bevel"
     d="M419.526 0L0 0L52.6601 47.52L8.77668 99.36L426.547 97.92C468.675 63.36 466.335 30.72 419.526 0Z" />
  <path
     style="fill:#008080;fill-rule:evenodd;stroke-width:1.72581"
     d="m 439.49632,331.25717 c 0.0974,-0.2425 8.70154,-10.21238 19.12029,-22.15526 13.38652,-15.34481 19.8005,-22.21003 19.90855,-23.17957 0.13799,-1.23852 -2.90532,-3.24655 -23.74278,-21.50512 l -23.08315,-20.22634 194.95491,0.009 194.95489,0.009 4.47685,3.11825 c 10.05589,7.00422 17.24753,13.79776 22.09911,20.87568 9.71808,14.17776 9.12683,27.8301 -1.88548,43.53662 -1.45267,2.07187 -6.00547,7.02975 -10.11729,11.01749 l -7.47605,7.25042 -71.89762,0.3277 c -39.54371,0.18023 -124.77215,0.44336 -189.39659,0.58475 -64.62445,0.1414 -119.88256,0.37391 -122.79587,0.5167 -2.99485,0.14676 -5.2199,0.0679 -5.11977,-0.18132 z"
     id="path6526"
     sodipodi:nodetypes="sssscccsssscsssss" />
  <text
     xml:space="preserve"
     style="font-style:normal;font-weight:normal;font-size:48.5153px;line-height:1.25;font-family:sans-serif;fill:#ffffff;fill-opacity:1;stroke:none;stroke-width:1.21323;stroke-miterlimit:4;stroke-dasharray:none"
     x="537.28003"
     y="296.87814"
     id="text1470"><tspan
       sodipodi:role="line"
       id="tspan1468"
       style="fill:#ffffff;stroke-width:1.21323;stroke-miterlimit:4;stroke-dasharray:none"
       x="537.28003"
       y="296.87814">Terrance</tspan></text>
  <rect
     style="fill:#ffffff;fill-rule:evenodd;stroke-width:2.19971"
     id="rect5882"
     width="248.14745"
     height="10.857578"
     x="574.6972"
     y="309.08972"
     rx="6.4020624"
     ry="4.5779529" />
</svg>
